<svg width="24" height="24" fill="none" xmlns="http://www.w3.org/2000/svg"><path d="M5.409 6.642c2.31-.109 4.619-.222 6.93-.304 1.073-.038 2.146-.07 3.219-.085 1.025-.013 2.135-.147 3.098.286 3.303 1.487 1.91 7.462-.373 9.236-1.591 1.236-4.135 1.328-6.066 1.278-1.792-.045-3.954-.25-5.462-1.324-2.599-1.85-1.241-6.895-1.326-10.344.051-1.93-2.044-2.243-2.044-2.243M12.885 10.142h2.773" stroke="#000" stroke-width="1.5" stroke-linecap="round" stroke-linejoin="round"/><path fill-rule="evenodd" clip-rule="evenodd" d="M7.149 19.769a.545.545 0 11-.001 1.09.545.545 0 01.001-1.09z" fill="#000"/><path clip-rule="evenodd" d="M7.149 19.769a.545.545 0 11-.001 1.09.545.545 0 01.001-1.09z" stroke="#000" stroke-width="1.5" stroke-linecap="round" stroke-linejoin="round"/><path fill-rule="evenodd" clip-rule="evenodd" d="M17.48 19.769a.545.545 0 110 1.09.545.545 0 010-1.09z" fill="#000"/><path clip-rule="evenodd" d="M17.48 19.769a.545.545 0 110 1.09.545.545 0 010-1.09z" stroke="#000" stroke-width="1.5" stroke-linecap="round" stroke-linejoin="round"/></svg>