<svg width="24" height="24" fill="none" xmlns="http://www.w3.org/2000/svg"><g stroke="#000" stroke-width="1.5" stroke-linecap="round" stroke-linejoin="round"><path d="M10.484 17.245H4.01"/><path clip-rule="evenodd" d="M14.545 17.246c0 2.041.681 2.721 2.722 2.721 2.04 0 2.722-.68 2.722-2.721 0-2.042-.681-2.722-2.722-2.722-2.04 0-2.722.68-2.722 2.722z"/><path d="M13.517 6.756h6.471"/><path clip-rule="evenodd" d="M9.455 6.755c0-2.041-.68-2.722-2.721-2.722-2.042 0-2.723.68-2.723 2.722 0 2.041.68 2.721 2.723 2.721 2.04 0 2.721-.68 2.721-2.721z"/></g></svg>