<svg xmlns="http://www.w3.org/2000/svg" width="24" height="24" color="#000" fill="none"><path fill="currentColor" d="M11.5 2.75c-3.717 0-6.75 3.065-6.75 6.871 0 2.313 1.056 4.073 2.777 5.249.21.144.413.283.558.397.15.116.313.26.437.454.117.183.179.371.221.547.039.162.071.355.106.562l.062.375c.07.419.112.663.164.837a.615.615 0 00.053.136l.012.005c.027.011.083.035.152.043.18.023.429.024.852.024h2.612c.424 0 .672-.001.852-.024.082-.01.165-.048.165-.048s.029-.057.052-.136c.052-.174.094-.418.164-.837l.063-.375c.034-.208.066-.402.106-.564.043-.177.105-.366.223-.55.125-.194.288-.338.438-.454.146-.112.332-.238.541-.379l.018-.013c1.754-1.186 2.872-2.951 2.872-5.249a.75.75 0 111.5 0c0 2.86-1.422 5.065-3.531 6.492-.234.158-.379.256-.482.336a.878.878 0 00-.095.081c-.004.011-.014.037-.026.09a7.493 7.493 0 00-.089.479l-.065.393c-.061.365-.117.704-.199.978-.091.305-.236.617-.529.865a1.52 1.52 0 01-.484.276v.434c0 .433 0 .829-.043 1.152-.048.356-.16.731-.47 1.04-.309.309-.684.422-1.04.47-.323.043-.719.043-1.152.043h-.09c-.433 0-.829 0-1.152-.043-.356-.048-.731-.161-1.04-.47-.309-.309-.422-.684-.47-1.04-.043-.323-.043-.719-.043-1.152V19.643a1.552 1.552 0 01-.584-.308c-.293-.248-.438-.56-.529-.865a8.768 8.768 0 01-.199-.978l-.065-.393a7.058 7.058 0 00-.088-.478c-.012-.052-.022-.078-.026-.09a.947.947 0 00-.096-.081 9.483 9.483 0 00-.483-.341c-2.102-1.437-3.43-3.646-3.43-6.488 0-4.612 3.682-8.371 8.25-8.371.565 0 1.117.058 1.651.168a.75.75 0 11-.302 1.469A6.666 6.666 0 0011.5 2.75zm5-1.5c.314 0 .594.195.703.49l.258.697c.362.978.478 1.244.668 1.434.19.19.456.306 1.434.668l.697.258a.749.749 0 010 1.406l-.697.258c-.978.362-1.244.478-1.434.668-.19.19-.306.456-.668 1.434l-.258.697a.749.749 0 01-1.406 0l-.258-.697c-.362-.978-.478-1.244-.668-1.434-.19-.19-.456-.306-1.434-.668l-.697-.258a.749.749 0 010-1.406l.697-.258c.978-.362 1.244-.478 1.434-.668.19-.19.306-.456.668-1.434l.258-.697a.749.749 0 01.703-.49zm-6.25 18.5V20c0 .493.002.787.03.997a.711.711 0 00.037.167l.011.005c.029.012.091.04.175.051.21.028.504.03.997.03s.787-.002.997-.03c.084-.011.146-.039.175-.051l.011-.005a.711.711 0 00.037-.167c.028-.21.03-.504.03-.997v-.25zM16.5 4.083c-.155.329-.33.61-.568.849a2.957 2.957 0 01-.849.568c.328.155.61.33.849.568.238.239.413.52.568.849.155-.329.33-.61.568-.849.239-.238.52-.413.849-.568a2.943 2.943 0 01-.849-.568 2.943 2.943 0 01-.568-.849z"/></svg>