<svg xmlns="http://www.w3.org/2000/svg" width="24" height="24" color="#000" fill="none"><path fill="#141B34" d="M11.943 1.75h.114c2.191 0 3.912 0 5.255.181 1.377.185 2.469.572 3.327 1.43.858.858 1.245 1.95 1.43 3.327.181 1.343.181 3.064.181 5.255v.114c0 2.191 0 3.912-.181 5.255-.185 1.377-.572 2.469-1.43 3.327-.858.858-1.95 1.245-3.327 1.43-1.343.181-3.064.181-5.255.181h-.114c-2.191 0-3.912 0-5.255-.181-1.377-.185-2.469-.572-3.327-1.43-.858-.858-1.245-1.95-1.43-3.327-.181-1.343-.181-3.064-.181-5.255v-.114c0-2.191 0-3.912.181-5.255.185-1.377.572-2.469 1.43-3.327.858-.858 1.95-1.245 3.327-1.43 1.343-.181 3.064-.181 5.255-.181zM4.422 4.422c-.533.533-.842 1.256-1.005 2.466C3.252 8.12 3.25 9.74 3.25 12v.75h4.176c1.28 0 2.135 1.04 2.546 1.862.29.582.853 1.138 2.028 1.138s1.738-.556 2.028-1.138c.411-.822 1.266-1.862 2.546-1.862h4.176V12c0-2.26-.002-3.88-.167-5.112-.163-1.21-.472-1.933-1.005-2.466-.533-.533-1.256-.842-2.466-1.005C15.88 3.252 14.26 3.25 12 3.25c-2.26 0-3.88.002-5.112.167-1.21.163-1.933.472-2.466 1.005zM3.259 14.25c.014 1.151.054 2.084.158 2.862.163 1.21.472 1.933 1.005 2.466.533.533 1.256.842 2.466 1.005 1.232.165 2.852.167 5.112.167 2.26 0 3.88-.002 5.112-.167 1.21-.163 1.933-.472 2.466-1.005.533-.533.842-1.256 1.005-2.466.104-.778.144-1.711.158-2.862h-4.167c-.404 0-.872.367-1.204 1.032-.516 1.034-1.567 1.968-3.37 1.968-1.803 0-2.854-.934-3.371-1.968-.331-.665-.799-1.032-1.203-1.032z"/></svg>