<svg width="24" height="24" fill="none" xmlns="http://www.w3.org/2000/svg"><g stroke="#000" stroke-width="1.5" stroke-linecap="round" stroke-linejoin="round"><path clip-rule="evenodd" d="M11.973 20.368c-3.24 0-6.006-.49-6.006-2.452s2.749-3.67 6.006-3.67c3.239 0 6.006 1.692 6.006 3.653s-2.75 2.47-6.006 2.47zM11.973 11.449a3.85 3.85 0 10-3.85-3.85 3.837 3.837 0 003.823 3.85h.027z"/><path d="M18.362 10.392a2.901 2.901 0 00-.166-5.643M18.943 13.544c1.754 0 3.252 1.19 3.252 2.252 0 .625-.517 1.306-1.3 1.49M5.584 10.392a2.901 2.901 0 01.165-5.643M5.002 13.544c-1.754 0-3.252 1.19-3.252 2.252 0 .625.517 1.306 1.302 1.49"/></g></svg>