<svg xmlns="http://www.w3.org/2000/svg" width="24" height="24" color="#000" fill="none"><path fill="currentColor" d="M12.659 3.434a3.75 3.75 0 012.158 1.816h1.543c.695 0 1.272 0 1.748.048.501.051.95.159 1.373.412.423.253.731.596 1.014 1.014.229.339.463.761.733 1.261l.138.256 1.289 2.393c.03.053.053.111.07.171.018.069.026.14.025.209v2.04c0 1.133 0 2.058-.098 2.789-.103.764-.325 1.427-.854 1.955-.565.565-1.287.783-2.131.876a2.751 2.751 0 01-5.313.076H9.646a2.75 2.75 0 01-5.313-.076c-.844-.093-1.566-.311-2.131-.876-.701-.701-.868-1.643-.924-2.761a.751.751 0 011.499-.074c.053 1.075.213 1.502.486 1.774.208.209.506.351 1.115.431a2.752 2.752 0 015.268.082h4.708a2.75 2.75 0 015.268-.082c.609-.08.907-.222 1.115-.431.204-.203.348-.496.428-1.094.083-.619.085-1.443.085-2.643v-1.25h-4.067c-.629.001-1.116.001-1.533-.134a2.75 2.75 0 01-1.765-1.766c-.136-.417-.136-.904-.135-1.533V8.2c0-1.175-.009-1.585-.11-1.895a2.253 2.253 0 00-1.445-1.445c-.269-.087-.612-.106-1.464-.109L2 4.75a.75.75 0 010-1.5h8.439c.982 0 1.653-.001 2.22.184zm4.123 3.317l-1.558-.001c.026.372.026.798.026 1.309v.002l.001.47c.003.539.016.72.06.855.124.381.422.679.803.803.16.052.383.061 1.186.061h3.444l-.681-1.265c-.352-.654-.591-1.095-.811-1.421-.211-.312-.371-.466-.54-.566-.169-.101-.38-.17-.755-.208-.304-.03-.676-.038-1.175-.039zM2 7.25h6a.75.75 0 010 1.5H2a.75.75 0 010-1.5zM1.25 11a.75.75 0 01.75-.75h4a.75.75 0 010 1.5H2a.75.75 0 01-.75-.75zM17 16.75a1.25 1.25 0 100 2.5 1.25 1.25 0 000-2.5zm-10 0a1.25 1.25 0 100 2.5 1.25 1.25 0 000-2.5z"/></svg>