<svg xmlns="http://www.w3.org/2000/svg" width="24" height="24" color="#000" fill="none"><path fill-rule="evenodd" clip-rule="evenodd" d="M20.971 16.53c.15.15.34.22.53.22s.38-.07.53-.22c.29-.29.29-.77 0-1.06L19.562 13a5.69 5.69 0 001.19-3.5c0-3.17-2.58-5.75-5.75-5.75s-5.75 2.58-5.75 5.75 2.58 5.75 5.75 5.75c1.32 0 2.53-.44 3.5-1.19l2.47 2.47zM10.751 9.5a4.26 4.26 0 014.25-4.25 4.26 4.26 0 014.25 4.25 4.26 4.26 0 01-4.25 4.25 4.26 4.26 0 01-4.25-4.25zm-8.25.75h4c.41 0 .75-.34.75-.75s-.34-.75-.75-.75h-4c-.41 0-.75.34-.75.75s.34.75.75.75zm0 5h4c.41 0 .75-.34.75-.75s-.34-.75-.75-.75h-4c-.41 0-.75.34-.75.75s.34.75.75.75zm16 5h-16c-.41 0-.75-.34-.75-.75s.34-.75.75-.75h16c.41 0 .75.34.75.75s-.34.75-.75.75z" fill="currentColor"/></svg>