<svg width="24" height="24" fill="none" xmlns="http://www.w3.org/2000/svg"><path fill-rule="evenodd" clip-rule="evenodd" d="M8.75 12A3.254 3.254 0 0012 15.25 3.254 3.254 0 0015.25 12 3.254 3.254 0 0012 8.75 3.254 3.254 0 008.75 12zm1.5 0c0-.965.785-1.75 1.75-1.75s1.75.785 1.75 1.75-.785 1.75-1.75 1.75-1.75-.785-1.75-1.75z" fill="#000"/><path fill-rule="evenodd" clip-rule="evenodd" d="M8.775 19.008c0 1.788 1.447 3.242 3.225 3.242s3.225-1.454 3.225-3.242c0-.423.28-.63.4-.7a.776.776 0 01.787.003 3.19 3.19 0 002.445.326 3.207 3.207 0 001.962-1.514 3.256 3.256 0 00-1.18-4.425.795.795 0 01-.398-.698c0-.14.039-.488.399-.697a3.258 3.258 0 001.179-4.426 3.208 3.208 0 00-4.406-1.187.774.774 0 01-.787.001.788.788 0 01-.401-.699c0-1.788-1.447-3.242-3.225-3.242S8.775 3.204 8.775 4.992c0 .423-.28.63-.401.7a.762.762 0 01-.785-.002 3.206 3.206 0 00-2.445-.327A3.208 3.208 0 003.18 6.877a3.258 3.258 0 001.179 4.426.79.79 0 01.398.697.791.791 0 01-.398.697 3.259 3.259 0 00-1.18 4.426 3.21 3.21 0 004.41 1.187.773.773 0 01.784-.002c.12.07.4.277.4.7zm.346-1.999a2.276 2.276 0 00-1.138-.308c-.395 0-.79.104-1.148.313-.398.23-.861.292-1.303.173a1.71 1.71 0 01-1.05-.81 1.751 1.751 0 01.633-2.383A2.284 2.284 0 006.258 12c0-.83-.427-1.577-1.144-1.994a1.755 1.755 0 01-.632-2.383 1.717 1.717 0 012.354-.636c.715.416 1.57.417 2.286.005a2.282 2.282 0 001.153-2c0-.96.774-1.742 1.725-1.742.95 0 1.725.781 1.725 1.742 0 .836.43 1.583 1.152 2 .717.412 1.572.41 2.289-.005a1.714 1.714 0 012.352.636 1.753 1.753 0 01-.633 2.383A2.284 2.284 0 0017.742 12c0 .831.427 1.577 1.143 1.994.827.48 1.11 1.55.633 2.383-.231.403-.604.691-1.05.81a1.7 1.7 0 01-1.302-.173 2.263 2.263 0 00-2.288-.005 2.28 2.28 0 00-1.153 2c0 .96-.774 1.741-1.725 1.741a1.735 1.735 0 01-1.725-1.742c0-.837-.431-1.584-1.154-1.999z" fill="#000"/></svg>