<svg width="25" height="24" fill="none" xmlns="http://www.w3.org/2000/svg"><path fill-rule="evenodd" clip-rule="evenodd" d="M17.907 10.698h-.025a.751.751 0 01-.725-.775c.032-.95-.433-1.568-1.244-1.65a.75.75 0 11.153-1.493c1.608.164 2.649 1.447 2.59 3.193a.75.75 0 01-.75.725zm-.082-7.414c-1.72-.55-4.101-.322-5.587 1.364-1.561-1.674-3.861-1.917-5.57-1.363-3.914 1.26-5.135 5.796-4.021 9.275v.001c1.758 5.471 7.603 8.422 9.605 8.422 1.787 0 7.864-2.896 9.602-8.423 1.114-3.478-.11-8.014-4.03-9.276z" fill="#000"/></svg>