<svg xmlns="http://www.w3.org/2000/svg" width="24" height="24" fill="none"><path fill-rule="evenodd" clip-rule="evenodd" d="M12.065 1.75l1.168.001a2.251 2.251 0 00.426 2.59l1.409 1.409-1.409 1.409a2.25 2.25 0 103.182 3.182l1.409-1.409 1.409 1.409c.7.7 1.748.843 2.59.426l.001 1.297v.001c0 2.01 0 3.607-.153 4.869-.158 1.299-.49 2.373-1.25 3.263-.2.233-.417.45-.65.65-.89.76-1.964 1.092-3.263 1.25-1.262.153-2.99.153-5 .153-2.008 0-3.606 0-4.868-.153-1.299-.158-2.373-.49-3.263-1.25a5.86 5.86 0 01-.65-.65c-.76-.89-1.092-1.964-1.25-3.263-.153-1.262-.153-2.86-.153-4.869s0-3.737.153-4.999c.158-1.299.49-2.373 1.25-3.263.2-.233.417-.45.65-.65.89-.76 1.964-1.092 3.263-1.25 1.262-.153 2.99-.153 5-.153zM4.638 18.929c-.41-.48-.662-1.122-.796-2.23a17.548 17.548 0 01-.105-1.436L7.47 11.53a1.81 1.81 0 012.56 0L14 15.5l1.97-1.97a1.81 1.81 0 012.56 0l1.733 1.733c-.02.537-.053 1.01-.104 1.436-.135 1.108-.387 1.75-.797 2.23-.133.155-.278.3-.433.433-.48.41-1.122.662-2.23.797-1.131.137-2.61.139-4.699.139-2.09 0-3.568-.002-4.699-.14-1.108-.134-1.75-.386-2.23-.796a3.913 3.913 0 01-.433-.433z" fill="#141B34"/><path fill-rule="evenodd" clip-rule="evenodd" d="M14.543 2.043a1 1 0 011.414 0l2.293 2.293 2.293-2.293a1 1 0 111.414 1.414L19.664 5.75l2.293 2.293a1 1 0 01-1.414 1.414L18.25 7.164l-2.293 2.293a1 1 0 11-1.414-1.414l2.293-2.293-2.293-2.293a1 1 0 010-1.414z" fill="#141B34"/></svg>