<svg width="25" height="25" fill="none" xmlns="http://www.w3.org/2000/svg"><path fill-rule="evenodd" clip-rule="evenodd" d="M16.06 9.349c-1.046-.243-2.307-.354-3.81-.354-1.503 0-2.764.11-3.81.354V7.917A3.79 3.79 0 0112.2 4.17c1.03-.028 1.982.372 2.71 1.083a3.78 3.78 0 011.15 2.67V9.35zM13 17.048a.75.75 0 01-1.5 0v-2.221a.75.75 0 011.5 0v2.22zm4.56-7.186V7.916a5.271 5.271 0 00-1.603-3.736c-1.015-.99-2.37-1.481-3.777-1.51a5.286 5.286 0 00-5.24 5.236v1.957c-2.034.97-2.85 2.82-2.85 5.903 0 5 2.136 6.772 8.16 6.772 6.025 0 8.16-1.772 8.16-6.772 0-3.082-.816-4.934-2.85-5.904z" fill="#000"/></svg>