<svg width="25" height="24" fill="none" xmlns="http://www.w3.org/2000/svg"><path fill-rule="evenodd" clip-rule="evenodd" d="M18.41 11.8a.75.75 0 11-1.5 0 .75.75 0 011.5 0zm-2.703.06c0 1 .814 1.812 1.813 1.812h4.46a20.108 20.108 0 00-.024-3.626H17.52c-.998 0-1.813.814-1.813 1.814z" fill="#000"/><path fill-rule="evenodd" clip-rule="evenodd" d="M11.902 8.641h-4.06a.75.75 0 010-1.5h4.06a.75.75 0 010 1.5zm5.619 6.531a3.316 3.316 0 01-3.313-3.312 3.317 3.317 0 013.313-3.314h4.21c-.878-4.054-3.671-5.585-9.48-5.585-7.236 0-9.801 2.366-9.801 9.04 0 6.673 2.565 9.038 9.8 9.038 5.943 0 8.73-1.6 9.539-5.867H17.52z" fill="#000"/></svg>