<svg viewBox="0 0 512 512" xmlns="http://www.w3.org/2000/svg" xmlns:xlink="http://www.w3.org/1999/xlink"><linearGradient id="prefix__a" gradientUnits="userSpaceOnUse" x1="342.57" x2="409.61" y1="309.6" y2="309.6"><stop offset="0" stop-color="#cacfdd"/><stop offset="1" stop-color="#eef0f1"/></linearGradient><linearGradient id="prefix__b" x1="307.37" x2="332.36" xlink:href="#prefix__a" y1="81.4" y2="81.4"/><linearGradient id="prefix__c" x1="282.38" x2="307.37" xlink:href="#prefix__a" y1="81.4" y2="81.4"/><linearGradient id="prefix__d" gradientTransform="rotate(-45 417.036 73.7)" x1="377.56" x2="402.55" xlink:href="#prefix__a" y1="56.2" y2="56.2"/><linearGradient id="prefix__e" gradientTransform="rotate(-45 417.036 73.7)" x1="352.57" x2="377.56" xlink:href="#prefix__a" y1="56.2" y2="56.2"/><g data-name="Empty Cart"><path d="M171.19 186.06l28.61 173.93h200.59l13.52-147.86z" fill="#f5f5f5"/><path d="M370.16 240.94a10.59 10.59 0 019.6 11.62l-7.22 71.57a6.9 6.9 0 01-13.76-.68l-.15-71.93a10.6 10.6 0 0111.53-10.58z" fill="#a9afc4"/><path d="M409.61 259.21L400.39 360h-52.9c-17.49-45.81 13.6-95.81 62.12-100.79z" fill="url(#prefix__a)"/><circle cx="313.97" cy="426.15" fill="#5e6175" r="17.98"/><circle cx="313.97" cy="426.15" fill="#f5f5f5" r="6.48"/><circle cx="136.94" cy="426.15" fill="#5e6175" r="17.98"/><circle cx="136.94" cy="426.15" fill="#f5f5f5" r="6.48"/><path d="M136.94 447.14a21 21 0 1121-21 21 21 0 01-21 21zm0-36a15 15 0 1015 15 15 15 0 00-15-14.97zM314 447.14a21 21 0 1121-21 21 21 0 01-21 21zm0-36a15 15 0 1015 15 15 15 0 00-15-14.97zM145.823 129.172l12.733-12.733 4.242 4.242-12.733 12.733zM130.13 103.85h6v18.01h-6zM157.9 142.04h18.01v6H157.9z" fill="#5e6175"/><path d="M171.19 186.06H92.96l46.94 173.93h59.9z" fill="#f5f5f5"/><g fill="#5e6175"><path d="M403.13 363H197.25l-29.66-180.34 249.58 26.8zm-200.78-6h195.3l13-142.2-235.86-25.34z"/><path d="M203.33 363H137.6L89 183.06h84.7zm-61.13-6h54.07l-27.63-167.94H96.88z"/><path d="M178.14 189.06H91.68L53.6 149.34h87.1zm-83.9-6h70l-26.13-27.72H67.67z"/><path d="M132.08 162.63H43.29a10.3 10.3 0 010-20.59h88.79a10.3 10.3 0 010 20.59zM43.29 148a4.3 4.3 0 000 8.59h88.79a4.3 4.3 0 000-8.59z"/><path d="M132.08 145H43.29a7.3 7.3 0 000 14.59h88.79a7.3 7.3 0 000-14.59zM202.8 429.15h-65.9v-69.16h6v63.16h53.9v-63.16h6z"/><path d="M375.02 429.15H196.8v-69.16h6v63.16h172.22z"/><circle cx="199.8" cy="426.15" r="17.98"/><circle cx="375.03" cy="426.15" r="17.98"/><path d="M199.8 447.14a21 21 0 1121-21 21 21 0 01-21 21zm0-36a15 15 0 1015 15 15 15 0 00-15-14.97zM375 447.14a21 21 0 1121-21 21 21 0 01-21 21zm0-36a15 15 0 1015 15 15 15 0 00-15-14.97z"/></g><circle cx="199.74" cy="426.15" fill="#f5f5f5" r="6.48"/><circle cx="375.03" cy="426.15" fill="#f5f5f5" r="6.48"/><path d="M235.28 227.89a12.21 12.21 0 0111.13 12.17v83.3a7 7 0 01-13.89.87l-10.44-82.64a12.22 12.22 0 0113.2-13.7zM306.22 235.17a12.26 12.26 0 0111.12 13.32l-6.88 75.45a7 7 0 01-14-.3L292.88 248a12.26 12.26 0 0113.34-12.83z" fill="#a9afc4"/><path d="M45.45 441.14h329.58v6H45.45z" fill="#5e6175"/><path d="M250.2 175.9v-6a19.63 19.63 0 005.23-.33l1.47 5.81a23.75 23.75 0 01-6.7.52zm-10 0h-6v-6h6zm26.46-7.3l-4.93-3.41a10.86 10.86 0 001.78-4.32l5.91 1a16.69 16.69 0 01-2.76 6.73zm-4.56-15.28a11.08 11.08 0 00-3.22-3.39l3.38-5a17.06 17.06 0 015 5.25zm-11-5.28h-6v-6h6zm-16 0a33.29 33.29 0 01-6.52-.3l1.07-5.91a29.09 29.09 0 005.45.21zm-16.81-5.82a19.08 19.08 0 01-3.89-5.91l5.53-2.31a13 13 0 002.67 4.05zm1-16.2l-5.85-1.33a18.91 18.91 0 012.83-6.49l5 3.38a13 13 0 00-2.06 4.42zm8.25-9.37l-2.15-5.65a19.15 19.15 0 016.92-1.17v6a13.12 13.12 0 00-4.85.82zm62.85-.8v-6a24.86 24.86 0 005.37-.23l1.22 5.88a29.56 29.56 0 01-6.67.35zm-10 0h-6v-6h6zm-16 0h-6v-6h6zm-16 0h-6v-6h6zm58.61-6.72l-4.79-3.62a10.84 10.84 0 002-4.23l5.86 1.28a16.86 16.86 0 01-3.07 6.57zm-2.58-17.19c0-.1-.47-.06 6-.06z" fill="#a9afc4"/><path d="M307.37 88.46a14.12 14.12 0 0114.12-14.12h10.87a14.12 14.12 0 01-14.13 14.12z" fill="url(#prefix__b)"/><path d="M307.37 88.46a14.12 14.12 0 00-14.12-14.12h-10.87a14.12 14.12 0 0014.13 14.12z" fill="url(#prefix__c)"/><path d="M318.23 91.46h-13.86v-3a17.14 17.14 0 0117.12-17.12h13.87v3a17.14 17.14 0 01-17.13 17.12zm-7.45-6h7.45A11.15 11.15 0 00329 77.34h-7.46a11.14 11.14 0 00-10.76 8.12z" fill="#5e6175"/><path d="M310.37 91.46h-13.86a17.14 17.14 0 01-17.13-17.12v-3h13.87a17.14 17.14 0 0117.12 17.12zm-24.58-14.12a11.15 11.15 0 0010.72 8.12H304a11.14 11.14 0 00-10.71-8.12z" fill="#5e6175"/><path d="M382 95.52a14.13 14.13 0 010-20l7.69-7.69a14.14 14.14 0 010 20z" fill="url(#prefix__d)"/><path d="M382 95.52a14.12 14.12 0 00-20 0l-7.68 7.68a14.11 14.11 0 0020 0z" fill="url(#prefix__e)"/><path d="M382 99.76l-2.12-2.12a17.12 17.12 0 010-24.22l9.81-9.8 2.12 2.12a17.12 17.12 0 010 24.22zm7.4-27.37l-5.27 5.28A11.12 11.12 0 00382.32 91l5.27-5.27a11.14 11.14 0 001.83-13.34z" fill="#5e6175"/><path d="M352.25 105.32l-2.12-2.12 9.8-9.8a17.12 17.12 0 0124.22 0l2.12 2.12-9.81 9.8a17.09 17.09 0 01-24.21 0zm6.65-2.4a11.11 11.11 0 0013.32-1.84l5.27-5.27a11.13 11.13 0 00-13.32 1.83z" fill="#5e6175"/><path d="M417.19 189.06l-.13-6a12.64 12.64 0 004.71-1l2.37 5.51a18.61 18.61 0 01-6.95 1.49zm-93.75-3h-6v-6h6zm82.56-.43a18.73 18.73 0 01-4.91-5.13l5-3.25a12.9 12.9 0 003.34 3.49zm26.91-5.84l-5.18-3a12.55 12.55 0 001.58-4.54l5.94.85a18.4 18.4 0 01-2.34 6.69zm-109.47-9.73h-6a23.28 23.28 0 01.59-6.7l5.81 1.49a18.52 18.52 0 00-.4 5.21zm80.68-.71h-6a15 15 0 00-.54-5l5.74-1.75a20.6 20.6 0 01.8 6.75zm31.32-6.69h-6v-6h6zm-107.31-4.5l-3.78-4.66a18.61 18.61 0 016.27-3.34l1.76 5.73a12.66 12.66 0 00-4.25 2.27zm64.85-.35a12.42 12.42 0 00-4.34-2.07l1.5-5.81a18.16 18.16 0 016.41 3.06zm-13.55-2.47h-6v-6h6zm-16 0h-6v-6h6zm-16 0h-6v-6h6zm88-8.68h-6v-6h6zm0-16h-6v-6h6zm-6.6-15a12.53 12.53 0 00-2.31-4.22l4.61-3.84a18.58 18.58 0 013.42 6.24zm-9-8.44a19.64 19.64 0 00-5.26-.36v-6a24.52 24.52 0 016.68.53zm-15.26-.36h-6v-6h6z" fill="#a9afc4"/><path d="M106.79 354.14a9.13 9.13 0 116.41-15.63 9.12 9.12 0 01-6.41 15.63zm0-12.26a3.13 3.13 0 103.13 3.11 3.13 3.13 0 00-3.13-3.11zM75.05 401.56A12.46 12.46 0 1187.51 389a12.47 12.47 0 01-12.46 12.56zm0-18.91a6.46 6.46 0 106.46 6.41 6.47 6.47 0 00-6.46-6.41z" fill="#5e6175"/><circle cx="417.32" cy="333.49" fill="#f5f5f5" r="58.68"/><path d="M417.32 395.18A61.69 61.69 0 11479 333.49a61.75 61.75 0 01-61.68 61.69zm0-117.37A55.69 55.69 0 10473 333.49a55.75 55.75 0 00-55.68-55.68z" fill="#5e6175"/><path d="M385.787 348.64l46.662-46.663 15.801 15.802-46.662 46.662z" fill="#e1830e"/><path d="M385.794 317.779l15.801-15.802 46.662 46.662-15.801 15.802z" fill="#e1830e"/></g></svg>