<svg width="24" height="25" fill="none" xmlns="http://www.w3.org/2000/svg"><g clip-path="url(#prefix__clip0_1658_4805)"><path d="M23.508 12.975c0-.984-.078-1.701-.248-2.445H12.23v4.438h6.474c-.13 1.103-.835 2.764-2.402 3.88l-.022.148 3.488 2.75.241.025c2.22-2.086 3.499-5.156 3.499-8.796z" fill="#4285F4"/><path d="M12.23 24.667c3.172 0 5.834-1.063 7.78-2.896l-3.708-2.924c-.992.705-2.323 1.196-4.072 1.196-3.107 0-5.744-2.086-6.684-4.97l-.138.013-3.626 2.856-.048.135c1.932 3.906 5.9 6.59 10.496 6.59z" fill="#34A853"/><path d="M5.546 15.074a7.482 7.482 0 01-.391-2.365c0-.824.143-1.621.378-2.366l-.006-.158-3.672-2.903-.12.058A12.145 12.145 0 00.48 12.71c0 1.926.457 3.747 1.254 5.368l3.811-3.003z" fill="#FBBC05"/><path d="M12.23 5.374c2.206 0 3.694.97 4.542 1.78l3.316-3.295C18.05 1.933 15.4.75 12.229.75 7.635.75 3.666 3.434 1.735 7.34l3.799 3.004c.953-2.884 3.59-4.97 6.696-4.97z" fill="#EB4335"/></g><defs><clipPath id="prefix__clip0_1658_4805"><path fill="#fff" transform="translate(.48 .75)" d="M0 0h23.04v24H0z"/></clipPath></defs></svg>