<svg width="25" height="24" fill="none" xmlns="http://www.w3.org/2000/svg"><path fill-rule="evenodd" clip-rule="evenodd" d="M12.25 2.5c-1.617 0-2.26 1.625-2.827 3.06l-.001.004c-.29.734-.59 1.493-.972 1.889-.376.387-1.27.432-2.135.476h-.013c-1.38.07-3.097.155-3.483 1.8-.367 1.562.78 2.507 1.791 3.341.693.57 1.347 1.11 1.492 1.77.14.64-.071 1.468-.276 2.269v.003l-.001.003c-.352 1.378-.75 2.938.584 3.945.417.315.84.44 1.258.44.905 0 1.787-.584 2.542-1.084l.005-.004c.697-.461 1.418-.937 2.035-.937h.001V2.5z" fill="#000"/><path opacity=".4" fill-rule="evenodd" clip-rule="evenodd" d="M12.25 2.5c1.617 0 2.26 1.625 2.827 3.06l.002.004c.29.734.59 1.493.971 1.889.376.387 1.27.432 2.135.476h.013c1.38.07 3.097.155 3.483 1.8.367 1.562-.78 2.507-1.791 3.341-.692.57-1.346 1.11-1.492 1.77-.14.64.071 1.468.276 2.269v.003l.001.003c.352 1.378.75 2.938-.584 3.945-.417.315-.84.44-1.258.44-.904 0-1.786-.584-2.541-1.084l-.006-.004c-.697-.461-1.418-.937-2.035-.937h-.001V2.5z" fill="#000"/></svg>