<svg width="25" height="25" fill="none" xmlns="http://www.w3.org/2000/svg"><path fill-rule="evenodd" clip-rule="evenodd" d="M12.25 10.192a2.415 2.415 0 00-2.412 2.412 2.415 2.415 0 002.412 2.412 2.415 2.415 0 002.412-2.412 2.415 2.415 0 00-2.412-2.412z" fill="#000"/><path fill-rule="evenodd" clip-rule="evenodd" d="M12.25 16.516a3.916 3.916 0 01-3.912-3.912 3.916 3.916 0 013.912-3.912 3.917 3.917 0 013.912 3.912 3.917 3.917 0 01-3.912 3.912zm0-11.714c-5.402 0-9.752 4.268-9.752 7.802s4.35 7.802 9.752 7.802c5.402 0 9.752-4.268 9.752-7.802s-4.35-7.802-9.752-7.802z" fill="#000"/></svg>