<svg width="24" height="25" fill="none" xmlns="http://www.w3.org/2000/svg"><g clip-path="url(#prefix__clip0_1658_10686)"><path d="M12 .75c-6.628 0-12 5.372-12 12s5.372 12 12 12 12-5.372 12-12-5.372-12-12-12z" fill="url(#prefix__paint0_linear_1658_10686)"/><path d="M13.728 17.608h3.257l.511-3.308h-3.768V12.49c0-1.374.45-2.592 1.735-2.592h2.065V7.012c-.363-.05-1.13-.156-2.58-.156-3.03 0-4.805 1.6-4.805 5.243V14.3H7.03v3.308h3.113v9.093c.617.092 1.242.155 1.883.155.58 0 1.145-.053 1.703-.128v-9.12z" fill="#fff"/></g><defs><linearGradient id="prefix__paint0_linear_1658_10686" x1="3.596" y1="4.346" x2="21.969" y2="22.719" gradientUnits="userSpaceOnUse"><stop stop-color="#2AA4F4"/><stop offset="1" stop-color="#007AD9"/></linearGradient><clipPath id="prefix__clip0_1658_10686"><path fill="#fff" transform="translate(0 .75)" d="M0 0h24v24H0z"/></clipPath></defs></svg>